<svg xmlns="http://www.w3.org/2000/svg" xmlns:xlink="http://www.w3.org/1999/xlink" width="1em" height="1em" preserveAspectRatio="xMidYMid meet" viewBox="0 0 32 32" style="-ms-transform: rotate(360deg); -webkit-transform: rotate(360deg); transform: rotate(360deg);"><path fill="#5c5c5c" d="M3 5v18h5v5.078L14.352 23H29V5zm2 2h22v14H13.648L10 23.918V21H5zm5 5a1.999 1.999 0 1 0 0 4a1.999 1.999 0 1 0 0-4zm6 0a1.999 1.999 0 1 0 0 4a1.999 1.999 0 1 0 0-4zm6 0a1.999 1.999 0 1 0 0 4a1.999 1.999 0 1 0 0-4z"/></svg>